# xmcd
#
# Track frame offsets:
#	150
#	10106
#	24346
#	38325
#	49188
#	65288
#	80672
#	88266
#	103638
#	114757
#	130615
#	144903
#	155693
#	168122
#	181606
#	203557
#	217172
#	229317
#	242722
#	255159
#
# Disc length: 3555 seconds
#
# Revision: 0
# Processed by: cddbd v1.4PL0 Copyright (c) Steve Scherf et al.
# Submitted via: EasyCDDAExtractor 4.6.9.1
#
DISCID=f30de114
DTITLE=Special Consensus - 25th Anniversary
DYEAR=2000
DGENRE=Bluegrass
TTITLE0=A Long Time Gone
TTITLE1=The Whistle's Lonesome Sound
TTITLE2=Sweet Temptation
TTITLE3=Lone Star
TTITLE4=I'm No Stranger To The Rain
TTITLE5=Walk These Blues Off My Mind
TTITLE6=I Can't Sit Down
TTITLE7=32 Acres
TTITLE8=Logging Camp
TTITLE9=Mortgages And Dust
TTITLE10=Cottonfields
TTITLE11=Stormy Waters
TTITLE12=Like A Train
TTITLE13=Bluewater
TTITLE14=Freight Train Boggie
TTITLE15=Smith's Reel
TTITLE16=That's Heaven To Me
TTITLE17=When The Walls Come Tumblin' Down
TTITLE18=Green Rolling Hills
TTITLE19=Stealin' Away
EXTD=
EXTT0=
EXTT1=
EXTT2=
EXTT3=
EXTT4=
EXTT5=
EXTT6=
EXTT7=
EXTT8=
EXTT9=
EXTT10=
EXTT11=
EXTT12=
EXTT13=
EXTT14=
EXTT15=
EXTT16=
EXTT17=
EXTT18=
EXTT19=
PLAYORDER=
